<?xml version="1.0" encoding="UTF-8" standalone="no"?>
<!-- Created with Inkscape (http://www.inkscape.org/) -->

<svg
   xmlns:dc="http://purl.org/dc/elements/1.1/"
   xmlns:cc="http://creativecommons.org/ns#"
   xmlns:rdf="http://www.w3.org/1999/02/22-rdf-syntax-ns#"
   xmlns:svg="http://www.w3.org/2000/svg"
   xmlns="http://www.w3.org/2000/svg"
   xmlns:xlink="http://www.w3.org/1999/xlink"
   xmlns:sodipodi="http://sodipodi.sourceforge.net/DTD/sodipodi-0.dtd"
   xmlns:inkscape="http://www.inkscape.org/namespaces/inkscape"
   width="1920"
   height="1080"
   id="svg2"
   version="1.1"
   inkscape:version="0.92.4 (5da689c313, 2019-01-14)"
   sodipodi:docname="guix-checkered-16-9.svg"
   inkscape:export-filename="guix-checkered.png"
   inkscape:export-xdpi="96"
   inkscape:export-ydpi="96">
  <defs
     id="defs4">
    <linearGradient
       id="linearGradient7972">
      <stop
         style="stop-color:#293034;stop-opacity:1;"
         offset="0"
         id="stop7974" />
      <stop
         style="stop-color:#1a1a1a;stop-opacity:1;"
         offset="1"
         id="stop7976" />
    </linearGradient>
    <radialGradient
       inkscape:collect="always"
       xlink:href="#linearGradient7972"
       id="radialGradient7978"
       cx="349"
       cy="147.55556"
       fx="349"
       fy="147.55556"
       r="512"
       gradientTransform="matrix(1.875,0,0,1.0546875,0,-267.75)"
       gradientUnits="userSpaceOnUse" />
    <pattern
       inkscape:stockid="Checkerboard"
       id="Checkerboard"
       patternTransform="translate(0,0) scale(10,10)"
       height="2"
       width="2"
       patternUnits="userSpaceOnUse"
       inkscape:collect="always"
       inkscape:isstock="true">
      <rect
         id="rect5679"
         height="1"
         width="1"
         y="0"
         x="0"
         style="fill:black;stroke:none" />
      <rect
         id="rect5681"
         height="1"
         width="1"
         y="1"
         x="1"
         style="fill:black;stroke:none" />
    </pattern>
    <linearGradient
       id="linearGradient4696-5">
      <stop
         id="stop4698-6"
         offset="0"
         style="stop-color:#ffb638;stop-opacity:1;" />
      <stop
         id="stop4700-2"
         offset="1"
         style="stop-color:#f0ae26;stop-opacity:1;" />
    </linearGradient>
    <linearGradient
       id="linearGradient4702-3">
      <stop
         id="stop4704-1"
         offset="0"
         style="stop-color:#e34646;stop-opacity:1;" />
      <stop
         id="stop4706-8"
         offset="1"
         style="stop-color:#ffbf2d;stop-opacity:1;" />
    </linearGradient>
    <color-profile
       name="Artifex-PS-CMYK-Profile"
       xlink:href="/usr/share/color/icc/ghostscript/ps_cmyk.icc"
       id="color-profile15" />
    <linearGradient
       y2="69.791016"
       x2="177.04297"
       y1="63.65625"
       x1="142.96875"
       gradientTransform="matrix(-0.88803314,0,0,0.88803314,2566.1263,-71.02263)"
       gradientUnits="userSpaceOnUse"
       id="linearGradient3940"
       xlink:href="#linearGradient4702-3"
       inkscape:collect="always" />
    <linearGradient
       y2="1043.709"
       x2="80.655251"
       y1="1025.709"
       x1="108.08774"
       gradientTransform="matrix(-0.49726789,0,0,0.49726789,2525.8665,-455.25083)"
       gradientUnits="userSpaceOnUse"
       id="linearGradient3943"
       xlink:href="#linearGradient4696-5"
       inkscape:collect="always" />
    <linearGradient
       y2="922.07178"
       x2="78.000107"
       y1="1004.8033"
       x1="113.5146"
       gradientTransform="matrix(0.88803314,0,0,0.88803314,2385.7437,-827.94909)"
       gradientUnits="userSpaceOnUse"
       id="linearGradient3946"
       xlink:href="#linearGradient4702-3"
       inkscape:collect="always" />
    <linearGradient
       y2="70.667412"
       x2="176.60477"
       y1="63.65625"
       x1="142.96875"
       gradientTransform="matrix(0.88803314,0,0,0.88803314,2385.7724,-71.02234)"
       gradientUnits="userSpaceOnUse"
       id="linearGradient3950"
       xlink:href="#linearGradient4702-3"
       inkscape:collect="always" />
  </defs>
  <sodipodi:namedview
     id="base"
     pagecolor="#ffffff"
     bordercolor="#666666"
     borderopacity="1.0"
     inkscape:pageopacity="0"
     inkscape:pageshadow="2"
     inkscape:zoom="1"
     inkscape:cx="854.22839"
     inkscape:cy="619.99618"
     inkscape:document-units="px"
     inkscape:current-layer="layer2"
     showgrid="false"
     inkscape:showpageshadow="false"
     inkscape:window-width="1920"
     inkscape:window-height="1016"
     inkscape:window-x="0"
     inkscape:window-y="27"
     inkscape:window-maximized="1"
     inkscape:snap-global="false"
     inkscape:snap-bbox="true"
     inkscape:bbox-nodes="true"
     showborder="true"
     inkscape:snap-page="true">
    <inkscape:grid
       type="xygrid"
       id="grid3148"
       empspacing="5"
       visible="true"
       enabled="true"
       snapvisiblegridlinesonly="true"
       spacingx="20px"
       spacingy="20px"
       originx="3px"
       originy="15px" />
  </sodipodi:namedview>
  <metadata
     id="metadata7">
    <rdf:RDF>
      <cc:Work
         rdf:about="">
        <dc:format>image/svg+xml</dc:format>
        <dc:type
           rdf:resource="http://purl.org/dc/dcmitype/StillImage" />
        <dc:title></dc:title>
        <dc:date>2020-02-23</dc:date>
        <dc:creator>
          <cc:Agent>
            <dc:title>sirgazil</dc:title>
          </cc:Agent>
        </dc:creator>
        <dc:rights>
          <cc:Agent>
            <dc:title>sirgazil</dc:title>
          </cc:Agent>
        </dc:rights>
        <dc:language>en</dc:language>
        <dc:contributor>
          <cc:Agent>
            <dc:title />
          </cc:Agent>
        </dc:contributor>
        <cc:license
           rdf:resource="http://creativecommons.org/publicdomain/zero/1.0/" />
        <dc:description>This background is for 16:9 displays.

This image is dedicated to the public domain, except for the Guix logo, which can be used under the  Creative Commons Attribution-ShareAlike 4.0 International License.</dc:description>
      </cc:Work>
      <cc:License
         rdf:about="http://creativecommons.org/publicdomain/zero/1.0/">
        <cc:permits
           rdf:resource="http://creativecommons.org/ns#Reproduction" />
        <cc:permits
           rdf:resource="http://creativecommons.org/ns#Distribution" />
        <cc:permits
           rdf:resource="http://creativecommons.org/ns#DerivativeWorks" />
      </cc:License>
    </rdf:RDF>
  </metadata>
  <g
     inkscape:groupmode="layer"
     id="layer4"
     inkscape:label="Background"
     transform="translate(0,504)"
     sodipodi:insensitive="true">
    <rect
       style="fill:url(#radialGradient7978);fill-opacity:1;stroke:none;stroke-width:1.875"
       id="rect4050"
       width="1920"
       height="1080"
       x="0"
       y="-504" />
  </g>
  <g
     inkscape:groupmode="layer"
     id="layer1"
     inkscape:label="Checkered pattern"
     sodipodi:insensitive="true">
    <rect
       style="opacity:0.1;fill:url(#Checkerboard);fill-opacity:1;stroke:none;stroke-width:1.875"
       id="rect4050-7"
       width="1920"
       height="1080"
       x="0"
       y="0" />
  </g>
  <g
     inkscape:groupmode="layer"
     id="layer2"
     inkscape:label="Logo"
     transform="translate(0,504)">
    <g
       id="g1093">
      <path
         id="path3190"
         transform="translate(0,-504)"
         d="M 904.89453 487.38086 L 901.0957 488.80078 C 902.50824 492.29063 904.00524 495.28657 905.58398 497.7793 C 907.12114 500.27206 908.85065 502.33873 910.76172 503.95898 C 912.67277 505.53772 914.8038 506.69751 917.17188 507.44531 C 919.53994 508.19315 922.2177 508.5508 925.20898 508.55078 C 925.32345 508.55078 925.41288 508.54347 925.52539 508.54297 C 925.60918 508.54354 925.6872 508.55078 925.77148 508.55078 C 927.83401 508.5508 929.56385 508.46454 931.00781 508.29102 C 931.35834 508.44748 931.70831 508.67774 932.05664 508.96875 C 931.99536 508.88541 931.78191 508.61138 931.48633 508.24609 C 938.5214 511.09494 945.09964 542.88649 951.94336 558.13672 L 951.93164 558.1543 L 951.93945 558.1543 L 951.93555 558.16016 L 968.60742 558.16016 L 968.60352 558.1543 L 968.61133 558.1543 L 968.63281 558.1543 L 968.62109 558.13281 C 975.0983 543.69661 981.33887 514.45977 987.95312 508.95703 C 987.9519 508.9587 987.9445 508.96719 987.94336 508.96875 C 988.13335 508.81001 988.32499 508.66631 988.51562 508.54297 C 988.70772 508.41868 988.89901 508.31528 989.0918 508.23828 C 989.47342 508.29166 989.877 508.33758 990.30469 508.37695 C 991.58822 508.49519 993.0796 508.5508 994.79102 508.55078 C 997.78228 508.5508 1000.4601 508.19315 1002.8281 507.44531 C 1005.1963 506.69751 1007.3273 505.53773 1009.2383 503.95898 C 1011.1493 502.33873 1012.8788 500.27205 1014.416 497.7793 C 1015.9947 495.2866 1017.4916 492.29063 1018.9043 488.80078 L 1015.1055 487.38086 C 1013.9008 489.58281 1012.6761 491.37655 1011.4297 492.78906 C 1010.2248 494.16009 1008.8975 495.25701 1007.4434 496.08789 C 1007.0984 496.28068 1006.7464 496.44308 1006.3789 496.60938 C 1006.3689 496.61338 1006.3664 496.62696 1006.3574 496.63086 C 1006.3502 496.63598 1006.3393 496.63943 1006.332 496.64453 C 1005.2057 497.14988 1003.9745 497.53115 1002.6406 497.7793 C 1000.8956 498.07015 998.89244 498.21682 996.60742 498.2168 C 994.92194 498.21682 993.40803 498.13093 992.07812 497.9668 C 992.07113 497.96646 992.06164 497.96718 992.05664 497.9668 C 991.88804 497.9546 991.5397 497.89816 991.17969 497.8418 C 990.80064 497.7824 990.41193 497.72441 989.80078 497.61133 C 978.59841 495.53863 974.88478 503.31535 974.08203 505.46094 C 973.95644 505.79679 973.89258 506.00391 973.89258 506.00391 L 960.28125 543.95898 L 946.66992 506.00391 C 946.66992 506.00391 946.60808 505.79679 946.48242 505.46094 C 945.67974 503.31534 941.96411 495.53862 930.76172 497.61133 C 930.15064 497.72441 929.76395 497.7824 929.38477 497.8418 C 929.0248 497.89816 928.67642 497.9547 928.50781 497.9668 C 928.50251 497.96718 928.49333 497.96646 928.48633 497.9668 C 927.15636 498.13092 925.64065 498.21682 923.95508 498.2168 C 921.67011 498.21683 919.66682 498.07015 917.92188 497.7793 C 917.47526 497.69621 917.04073 497.59682 916.61719 497.48438 C 915.34656 497.14705 914.1805 496.67994 913.12109 496.08789 C 911.66696 495.25702 910.33763 494.16009 909.13281 492.78906 C 907.88647 491.37655 906.6638 489.58281 905.45898 487.38086 L 904.99414 487.55469 C 904.96094 487.49468 904.92771 487.44149 904.89453 487.38086 z "
         style="font-style:normal;font-weight:bold;font-size:144px;line-height:125%;font-family:Sans;-inkscape-font-specification:'Sans Bold';letter-spacing:0px;word-spacing:0px;fill:#000000;fill-opacity:1;stroke:none;stroke-width:0.55390388" />
      <path
         id="path3178"
         transform="translate(0,-504)"
         d="M 970.21289 570.40234 L 970.21289 574.69922 L 975.48047 574.69922 L 975.48047 570.40234 L 970.21289 570.40234 z M 935.19141 570.93359 C 931.4048 570.93361 928.42192 571.94791 926.24414 573.97852 C 924.06636 576.00918 922.97852 578.7946 922.97852 582.33594 C 922.97852 585.83806 924.047 588.61576 926.18555 590.66602 C 928.32409 592.70646 931.22373 593.72656 934.88281 593.72656 C 936.50142 593.72656 938.0693 593.55427 939.58984 593.21094 C 941.11035 592.8676 942.5776 592.35271 943.99023 591.66602 L 943.99023 581.10156 L 935.16211 581.10156 L 935.16211 584.89648 L 938.61914 584.89648 L 938.61914 589.16406 C 938.21693 589.32102 937.76009 589.43908 937.25 589.51758 C 936.74968 589.58629 936.20577 589.6211 935.61719 589.62109 C 933.4492 589.6211 931.77679 588.98813 930.59961 587.72266 C 929.42243 586.4572 928.83398 584.66088 928.83398 582.33594 C 928.83398 579.9914 929.44176 578.19123 930.6582 576.93555 C 931.88442 575.6701 933.62654 575.03908 935.88281 575.03906 C 937.09922 575.03908 938.31094 575.2094 939.51758 575.55273 C 940.73398 575.89609 941.9554 576.4168 943.18164 577.11328 L 943.18164 572.56641 C 941.99463 572.02689 940.72871 571.62039 939.38477 571.3457 C 938.05062 571.07104 936.65305 570.93361 935.19141 570.93359 z M 948.55273 576.81836 L 948.55273 586.88281 C 948.55273 589.10964 949.04825 590.80724 950.03906 591.97461 C 951.03965 593.14198 952.49142 593.72656 954.39453 593.72656 C 955.46379 593.72656 956.43937 593.50007 957.32227 593.04883 C 958.21495 592.58776 959.05891 591.87738 959.85352 590.91602 L 959.85352 593.29883 L 965.12109 593.29883 L 965.12109 576.81836 L 959.85352 576.81836 L 959.85352 584.95703 C 959.8535 586.45794 959.53798 587.62902 958.91016 588.47266 C 958.28231 589.3163 957.42097 589.73828 956.32227 589.73828 C 955.87102 589.73828 955.46838 589.64536 955.11523 589.45898 C 954.77187 589.2726 954.4912 589.0074 954.27539 588.66406 C 954.10863 588.3992 953.99047 587.97723 953.92188 587.39844 C 953.85328 586.80986 953.8203 585.85363 953.82031 584.5293 C 953.82031 584.07805 953.82398 583.17989 953.83398 581.83594 C 953.84268 580.48219 953.84959 579.35951 953.84961 578.4668 L 953.84961 576.81836 L 948.55273 576.81836 z M 970.21289 576.81836 L 970.21289 593.29883 L 975.48047 593.29883 L 975.48047 576.81836 L 970.21289 576.81836 z M 978.79102 576.81836 L 984.73633 584.86719 L 978.49609 593.29883 L 984.07422 593.29883 L 987.73633 588.08984 L 991.44531 593.29883 L 997.02148 593.29883 L 990.7832 584.83789 L 996.72852 576.81836 L 991.15039 576.81836 L 987.73633 581.70312 L 984.36719 576.81836 L 978.79102 576.81836 z "
         style="font-style:normal;font-weight:bold;font-size:40px;line-height:125%;font-family:Sans;-inkscape-font-specification:'Sans Bold';letter-spacing:0px;word-spacing:0px;fill:#000000;fill-opacity:1;stroke:none;stroke-width:0.55390388" />
      <g
         transform="matrix(0.74879927,0,0,0.74879927,-893.9891,3.9903154)"
         id="g1055">
        <g
           id="g3875"
           transform="translate(1991.2129,-974.56561)">
          <path
             d="m 463.48633,1084.1942 c -1.87503,0.9115 -3.82164,1.5951 -5.83985,2.0508 -2.01825,0.4557 -4.10158,0.6836 -6.25,0.6836 -4.85678,0 -8.70443,-1.3542 -11.54296,-4.0625 -2.83855,-2.7214 -4.25782,-6.4063 -4.25782,-11.0547 0,-4.7005 1.44531,-8.3984 4.33594,-11.0937 2.89062,-2.6953 6.84895,-4.043 11.875,-4.043 1.94008,0 3.79555,0.1823 5.56641,0.5469 1.78383,0.3646 3.46351,0.9049 5.03906,1.6211 v 6.0351 c -1.62763,-0.9244 -3.24872,-1.6146 -4.86328,-2.0703 -1.60159,-0.4557 -3.20966,-0.6836 -4.82422,-0.6836 -2.99481,0 -5.306,0.8399 -6.93359,2.5195 -1.6146,1.6667 -2.42189,4.056 -2.42188,7.168 -1e-5,3.086 0.78124,5.4688 2.34375,7.1484 1.56249,1.6797 3.78254,2.5196 6.66016,2.5196 0.78123,0 1.50388,-0.046 2.16797,-0.1367 0.67706,-0.1042 1.28253,-0.2605 1.8164,-0.4688 v -5.6641 h -4.58984 v -5.039 h 11.71875 v 14.0234"
             style="font-style:normal;font-weight:bold;font-size:40px;line-height:125%;font-family:Sans;-inkscape-font-specification:'Sans Bold';letter-spacing:0px;word-spacing:0px;fill:#ffffff;fill-opacity:1;stroke:none"
             id="path3253"
             inkscape:connector-curvature="0" />
          <path
             d="m 469.54102,1077.8466 v -13.3594 h 7.03125 v 2.1875 c -10e-6,1.1849 -0.007,2.6758 -0.0195,4.4726 -0.013,1.7839 -0.0195,2.9753 -0.0195,3.5743 -1e-5,1.7578 0.0456,3.0273 0.13672,3.8086 0.0911,0.7682 0.24739,1.3281 0.46875,1.6796 0.28645,0.4558 0.65754,0.8073 1.11328,1.0547 0.46874,0.2474 1.00259,0.3711 1.60157,0.3711 1.45831,0 2.60415,-0.5599 3.4375,-1.6797 0.83331,-1.1198 1.24998,-2.6757 1.25,-4.6679 v -10.8008 h 6.99218 v 21.875 h -6.99218 v -3.1641 c -1.05471,1.2761 -2.1745,2.2201 -3.35938,2.8321 -1.17189,0.5989 -2.46746,0.8984 -3.88672,0.8984 -2.52605,0 -4.45313,-0.7748 -5.78125,-2.3242 -1.31511,-1.5495 -1.97266,-3.8021 -1.97265,-6.7578"
             style="font-style:normal;font-weight:bold;font-size:40px;line-height:125%;font-family:Sans;-inkscape-font-specification:'Sans Bold';letter-spacing:0px;word-spacing:0px;fill:#ffffff;fill-opacity:1;stroke:none"
             id="path3255"
             inkscape:connector-curvature="0" />
          <path
             d="m 498.29102,1064.4872 h 6.99218 v 21.875 h -6.99218 v -21.875 m 0,-8.5156 h 6.99218 v 5.7031 h -6.99218 v -5.7031"
             style="font-style:normal;font-weight:bold;font-size:40px;line-height:125%;font-family:Sans;-inkscape-font-specification:'Sans Bold';letter-spacing:0px;word-spacing:0px;fill:#ffffff;fill-opacity:1;stroke:none"
             id="path3257"
             inkscape:connector-curvature="0" />
          <path
             d="m 517.56836,1075.1708 -7.89063,-10.6836 h 7.40235 l 4.47265,6.4844 4.53125,-6.4844 h 7.40235 l -7.89063,10.6445 8.28125,11.2305 h -7.40234 l -4.92188,-6.9141 -4.86328,6.9141 h -7.40234 l 8.28125,-11.1914"
             style="font-style:normal;font-weight:bold;font-size:40px;line-height:125%;font-family:Sans;-inkscape-font-specification:'Sans Bold';letter-spacing:0px;word-spacing:0px;fill:#ffffff;fill-opacity:1;stroke:none"
             id="path3259"
             inkscape:connector-curvature="0" />
        </g>
        <path
           inkscape:connector-curvature="0"
           style="font-style:normal;font-weight:bold;font-size:144px;line-height:125%;font-family:Sans;-inkscape-font-specification:'Sans Bold';letter-spacing:0px;word-spacing:0px;fill:#ffbf2d;fill-opacity:1;stroke:none"
           d="m 2548.8376,-28.84089 c -1.6016,2.92698 -3.2275,5.30992 -4.8842,7.18753 -1.6015,1.82245 -3.3676,3.28019 -5.3004,4.38465 -1.8777,1.04931 -4.0081,1.80608 -6.3828,2.24783 -2.3194,0.38657 -4.9827,0.58286 -8.02,0.58275 -2.2406,0 -4.2542,-0.11475 -6.022,-0.33297 -0.01,0 -0.021,0 -0.028,0 -0.2241,-0.0163 -0.687,-0.0915 -1.1656,-0.16652 -0.504,-0.0789 -1.0192,-0.15496 -1.8315,-0.30526 -14.891,-2.75519 -19.8296,7.58236 -20.8966,10.43442 -0.167,0.44637 -0.2497,0.72146 -0.2497,0.72146 l -18.0937,50.45139 -11.1004,18.8708 h 22.1731 c 9.1067,-20.2764 17.8619,-62.61298 27.2237,-66.35275 2.0292,0.28381 4.5444,0.41621 7.5761,0.41621 3.9762,0 7.5363,-0.47668 10.6841,-1.47076 3.1478,-0.99405 5.9792,-2.53589 8.5196,-4.63446 2.5403,-2.15375 4.8389,-4.90076 6.8823,-8.21431 2.0985,-3.31346 4.0887,-7.29401 5.9664,-11.93293 l -5.0506,-1.88708 z"
           id="path3324" />
        <path
           style="font-style:normal;font-weight:bold;font-size:144px;line-height:125%;font-family:Sans;-inkscape-font-specification:'Sans Bold';letter-spacing:0px;word-spacing:0px;fill:url(#linearGradient3950);fill-opacity:1;stroke:none"
           d="m 2548.837,-28.83882 c -1.6015,2.92697 -3.2273,5.30663 -4.8841,7.18424 -1.6015,1.82246 -3.3682,3.28089 -5.3011,4.38535 -0.465,0.25986 -0.9444,0.49865 -1.4403,0.72229 -0.01,0.002 -0.01,0.006 -0.013,0.009 -0.6242,0.43896 -1.427,0.81579 -2.5151,1.07484 -12.5499,2.98812 -21.0981,14.17223 -21.901,15.25415 0.3641,-0.29931 0.7305,-0.54368 1.0964,-0.73089 0.055,-0.0291 0.1083,-0.0555 0.1633,-0.0817 0.01,-0.004 0.017,-0.009 0.026,-0.0129 0.064,-0.0298 0.1297,-0.0562 0.1935,-0.0817 2.0292,0.28381 4.5438,0.41704 7.5755,0.41704 3.9762,0 7.5361,-0.4806 10.6839,-1.47469 3.1478,-0.99405 5.9767,-2.53184 8.5171,-4.63041 2.5403,-2.15374 4.8399,-4.90254 6.8833,-8.21609 2.0985,-3.31346 4.0898,-7.2961 5.9675,-11.93504 l -5.0518,-1.88312 z"
           id="path3326"
           inkscape:connector-curvature="0" />
        <path
           inkscape:connector-curvature="0"
           style="font-style:normal;font-weight:bold;font-size:144px;line-height:125%;font-family:Sans;-inkscape-font-specification:'Sans Bold';letter-spacing:0px;word-spacing:0px;fill:#ffbf2d;fill-opacity:1;stroke:none"
           d="m 2403.0612,-28.84088 c 1.6016,2.92697 3.2275,5.30991 4.8842,7.18752 1.6015,1.82245 3.3676,3.28019 5.3005,4.38465 1.8776,1.04931 4.008,1.80608 6.3827,2.24783 2.3195,0.38669 4.9827,0.58286 8.02,0.58275 2.2406,0 4.2542,-0.11475 6.022,-0.33297 0.01,0 0.021,0 0.028,0 0.2241,-0.0161 0.687,-0.0915 1.1656,-0.16652 0.504,-0.0789 1.0192,-0.15496 1.8315,-0.30526 14.891,-2.75519 19.8296,7.58236 20.8966,10.43442 0.167,0.44637 0.2497,0.72146 0.2497,0.72146 l 18.0937,50.45139 11.1004,18.8708 h -22.1731 c -9.1067,-20.2764 -17.8618,-62.61298 -27.2237,-66.35275 -2.0292,0.28381 -4.5444,0.41621 -7.5761,0.41621 -3.9762,0 -7.5363,-0.47668 -10.6841,-1.47076 -3.1478,-0.99405 -5.9792,-2.53589 -8.5196,-4.63446 -2.5403,-2.15375 -4.8389,-4.90076 -6.8822,-8.21431 -2.0986,-3.31343 -4.0888,-7.29398 -5.9665,-11.93293 l 5.0507,-1.88707 z"
           id="path3328" />
        <path
           sodipodi:nodetypes="ccccccccsscccccccccccc"
           id="path3330"
           d="m 2403.0603,-28.84161 c 1.6016,2.92697 3.2275,5.3099 4.8842,7.18751 1.6015,1.82246 3.3676,3.2802 5.3005,4.38466 1.8776,1.04931 4.008,1.80608 6.3827,2.24783 2.3195,0.38668 4.9827,0.58286 8.0201,0.58275 2.2405,0 4.2541,-0.11476 6.0219,-0.33298 0.01,0 0.021,0 0.028,0 0.2241,-0.0161 0.6871,-0.0915 1.1656,-0.16652 0.504,-0.0789 1.0192,-0.15495 1.8315,-0.30525 14.891,-2.75519 19.8296,7.58235 20.8966,10.43441 0.167,0.44638 0.2497,0.72147 0.2497,0.72147 l 18.0937,50.45142 9.3244,18.8708 h -20.3971 c -9.1066,-20.2765 -17.8618,-62.61302 -27.2237,-66.35278 -2.0292,0.28381 -4.5444,0.4162 -7.5761,0.4162 -3.9762,0 -7.5363,-0.47668 -10.6841,-1.47076 -3.1478,-0.99405 -5.9792,-2.53589 -8.5196,-4.63446 -2.5403,-2.15374 -4.8389,-4.90075 -6.8822,-8.2143 -2.0986,-3.31344 -4.0888,-7.29399 -5.9665,-11.93294 l 5.0507,-1.88706 z"
           style="font-style:normal;font-weight:bold;font-size:144px;line-height:125%;font-family:Sans;-inkscape-font-specification:'Sans Bold';letter-spacing:0px;word-spacing:0px;fill:url(#linearGradient3946);fill-opacity:1;stroke:none"
           inkscape:connector-curvature="0" />
        <path
           inkscape:connector-curvature="0"
           id="path3332"
           style="font-style:normal;font-weight:bold;font-size:144px;line-height:125%;font-family:Sans;-inkscape-font-specification:'Sans Bold';letter-spacing:0px;word-spacing:0px;fill:url(#linearGradient3943);fill-opacity:1;stroke:none"
           d="m 2475.9308,46.35649 -11.0569,18.8787 h 22.162"
           sodipodi:nodetypes="ccc" />
        <path
           style="font-style:normal;font-weight:bold;font-size:144px;line-height:125%;font-family:Sans;-inkscape-font-specification:'Sans Bold';letter-spacing:0px;word-spacing:0px;fill:url(#linearGradient3940);fill-opacity:1;stroke:none"
           d="m 2403.0627,-28.83882 -5.0517,1.88312 c 0.5867,1.44967 1.1842,2.83667 1.7928,4.15749 0.1217,0.26416 0.2429,0.52349 0.3655,0.78248 4e-4,9.5e-4 -5e-4,0.003 0,0.004 0.122,0.25779 0.2468,0.51261 0.3697,0.76528 0.041,0.0842 0.084,0.16572 0.1247,0.24936 0.2061,0.42 0.4106,0.83689 0.6191,1.24252 9e-4,0.002 0,0.002 0,0.004 0.1243,0.2417 0.2489,0.4814 0.374,0.71799 0.5048,0.95435 1.0165,1.86766 1.5349,2.7387 0.1295,0.2175 0.2566,0.4283 0.387,0.6406 0.051,0.0823 0.1,0.16356 0.1504,0.24506 0.081,0.12983 0.1641,0.25911 0.2451,0.38695 0.1277,0.20709 0.2529,0.41215 0.3826,0.61481 0.2067,0.32289 0.4204,0.63855 0.6321,0.95016 0.053,0.0787 0.1052,0.15851 0.159,0.23646 0.1344,0.19476 0.2679,0.38588 0.4042,0.57612 0.2712,0.37857 0.5463,0.74862 0.8254,1.10923 0.1396,0.18031 0.2799,0.35733 0.4214,0.53312 0.283,0.3516 0.5691,0.69408 0.8599,1.02755 0.2204,0.25283 0.4458,0.50143 0.6707,0.7438 0.071,0.0765 0.1434,0.15236 0.2149,0.22786 0.2992,0.31605 0.6003,0.62244 0.9072,0.92006 0.1531,0.14846 0.305,0.29469 0.46,0.43854 0.1558,0.14458 0.311,0.28572 0.4687,0.42564 0.1568,0.13924 0.3141,0.27383 0.4729,0.40844 0.4763,0.39348 0.9648,0.76774 1.4618,1.12213 1.3252,0.94504 2.7242,1.75192 4.2005,2.42054 0.1845,0.0836 0.3676,0.16579 0.5546,0.24507 0.375,0.15912 0.7544,0.30958 1.1393,0.45143 0.1918,0.0707 0.3818,0.13566 0.5761,0.20207 0.1943,0.0664 0.3923,0.13135 0.589,0.19347 0.1968,0.0621 0.3934,0.12248 0.5933,0.18058 0.4,0.11619 0.8082,0.22656 1.2211,0.32675 0.2064,0.0501 0.4137,0.0958 0.6234,0.14188 0.2096,0.0461 0.4191,0.0911 0.632,0.13328 0.2142,0.0425 0.4274,0.0819 0.6449,0.12038 0.4322,0.0765 0.8705,0.14551 1.3156,0.20637 0.6677,0.0913 1.3496,0.16695 2.0465,0.22357 0.4646,0.0377 0.9369,0.0678 1.4145,0.0903 0.4775,0.0225 0.9626,0.0355 1.4532,0.043 0.2452,0.004 0.4909,0.004 0.7395,0.004 0.3789,0 0.7506,-1.3e-4 1.1135,-0.004 0.7257,-0.008 1.4187,-0.0261 2.0809,-0.0516 0.3296,-0.0127 0.6533,-0.0259 0.9673,-0.043 0.3154,-0.0171 0.6247,-0.0386 0.9244,-0.0602 0.8992,-0.0649 1.7284,-0.14724 2.4893,-0.25366 0.064,0.0255 0.1297,0.0519 0.1935,0.0817 0.01,0.004 0.017,0.009 0.026,0.0129 0.055,0.0262 0.1084,0.0525 0.1634,0.0817 0.366,0.18732 0.732,0.43134 1.0963,0.73089 -0.8012,-1.07972 -9.3496,-12.2658 -21.901,-15.25415 -1.0881,-0.25909 -1.8909,-0.63586 -2.5151,-1.07484 -0.01,-0.002 -0.01,-0.006 -0.013,-0.009 -0.4947,-0.22313 -0.9762,-0.4631 -1.4403,-0.72229 -9e-4,-4.8e-4 0,4.7e-4 0,0 -0.1197,-0.0684 -0.2384,-0.13954 -0.3568,-0.21067 0,-4.8e-4 0,4.7e-4 0,0 -0.1195,-0.0718 -0.2344,-0.14471 -0.3526,-0.21927 -0.2373,-0.14973 -0.4729,-0.3034 -0.7051,-0.46433 -0.1156,-0.0801 -0.2296,-0.16217 -0.3439,-0.24506 -0.2302,-0.16697 -0.4544,-0.33764 -0.6793,-0.51593 -0.1117,-0.0885 -0.2206,-0.17527 -0.3311,-0.26656 -0.1112,-0.092 -0.2211,-0.18465 -0.331,-0.27946 -0.1091,-0.0941 -0.2146,-0.19115 -0.3225,-0.28806 -0.5391,-0.48454 -1.0623,-1.00108 -1.5692,-1.55637 -0.1014,-0.11105 -0.2052,-0.22574 -0.3053,-0.33965 -0.3684,-0.4175 -0.7352,-0.8606 -1.1006,-1.3285 -0.046,-0.0582 -0.088,-0.11724 -0.1333,-0.17627 -0.1026,-0.1333 -0.2072,-0.26682 -0.3096,-0.40414 -0.5119,-0.68664 -1.0197,-1.42531 -1.5262,-2.21419 -0.2026,-0.31554 -0.4045,-0.63948 -0.6062,-0.97165 -0.1009,-0.16609 -0.2003,-0.33276 -0.301,-0.50302 -0.3011,-0.5092 -0.6035,-1.03952 -0.9029,-1.58647 z"
           id="path3334"
           inkscape:connector-curvature="0" />
      </g>
    </g>
  </g>
</svg>
